<?xml version="1.0" encoding="utf-8"?>
<!-- Generator: Adobe Illustrator 21.0.2, SVG Export Plug-In . SVG Version: 6.00 Build 0)  -->
<svg version="1.1" id="Layer_1" xmlns="http://www.w3.org/2000/svg" xmlns:xlink="http://www.w3.org/1999/xlink" x="0px" y="0px"
	 viewBox="0 0 178.2 110.5" style="enable-background:new 0 0 178.2 110.5;" xml:space="preserve">
<style type="text/css">
	.st0{fill:url(#SVGID_1_);}
	.st1{fill:url(#SVGID_2_);}
</style>
<linearGradient id="SVGID_1_" gradientUnits="userSpaceOnUse" x1="70.2807" y1="38.0717" x2="164.0307" y2="38.0717" gradientTransform="matrix(0.9094 -0.416 0.416 0.9094 -5.9119 63.3659)">
	<stop  offset="0" style="stop-color:#FCEE21"/>
	<stop  offset="8.924381e-02" style="stop-color:#FCEE24"/>
	<stop  offset="0.1601" style="stop-color:#FBED2E"/>
	<stop  offset="0.2247" style="stop-color:#F9ED3F"/>
	<stop  offset="0.2855" style="stop-color:#F6EC57"/>
	<stop  offset="0.3437" style="stop-color:#F3EB75"/>
	<stop  offset="0.3999" style="stop-color:#EEE99B"/>
	<stop  offset="0.4535" style="stop-color:#EAE7C6"/>
	<stop  offset="0.4876" style="stop-color:#E6E6E6"/>
	<stop  offset="0.4957" style="stop-color:#E7E6E0"/>
	<stop  offset="0.565" style="stop-color:#ECE8AE"/>
	<stop  offset="0.6358" style="stop-color:#F1EA82"/>
	<stop  offset="0.707" style="stop-color:#F5EB5F"/>
	<stop  offset="0.7786" style="stop-color:#F8ED44"/>
	<stop  offset="0.8508" style="stop-color:#FAED30"/>
	<stop  offset="0.924" style="stop-color:#FCEE25"/>
	<stop  offset="1" style="stop-color:#FCEE21"/>
</linearGradient>
<path class="st0" d="M82.6,19.4C87.7,11.8,97.7,3,115.5,7.3c3.5,0.9,6.4,3.3,8.1,6.5c18.5,35.6,54.6,57.7,54.6,57.7l-85.3,39
	c0,0,2.2-27.5-12.7-74.5C78.5,30.4,79.3,24.3,82.6,19.4z"/>
<linearGradient id="SVGID_2_" gradientUnits="userSpaceOnUse" x1="15.5881" y1="45.2503" x2="109.3381" y2="45.2503" gradientTransform="matrix(0.8948 0.4464 -0.4464 0.8948 26.7677 -23.1242)">
	<stop  offset="0" style="stop-color:#FCEE21"/>
	<stop  offset="8.924381e-02" style="stop-color:#FCEE24"/>
	<stop  offset="0.1601" style="stop-color:#FBED2E"/>
	<stop  offset="0.2247" style="stop-color:#F9ED3F"/>
	<stop  offset="0.2855" style="stop-color:#F6EC57"/>
	<stop  offset="0.3437" style="stop-color:#F3EB75"/>
	<stop  offset="0.3999" style="stop-color:#EEE99B"/>
	<stop  offset="0.4535" style="stop-color:#EAE7C6"/>
	<stop  offset="0.4876" style="stop-color:#E6E6E6"/>
	<stop  offset="0.4957" style="stop-color:#E7E6E0"/>
	<stop  offset="0.565" style="stop-color:#ECE8AE"/>
	<stop  offset="0.6358" style="stop-color:#F1EA82"/>
	<stop  offset="0.707" style="stop-color:#F5EB5F"/>
	<stop  offset="0.7786" style="stop-color:#F8ED44"/>
	<stop  offset="0.8508" style="stop-color:#FAED30"/>
	<stop  offset="0.924" style="stop-color:#FCEE25"/>
	<stop  offset="1" style="stop-color:#FCEE21"/>
</linearGradient>
<path class="st1" d="M64.4,0.1c9.2-0.8,22.3,1.4,30.1,18c1.5,3.3,1.5,7.1,0,10.4c-16.1,36.7-10.6,78.8-10.6,78.8L0,65.5
	c0,0,22.8-15.6,50-56.6C53.3,3.9,58.5,0.7,64.4,0.1z"/>
</svg>
