<?xml version="1.0" encoding="utf-8"?>
<!-- Generator: Adobe Illustrator 21.0.2, SVG Export Plug-In . SVG Version: 6.00 Build 0)  -->
<svg version="1.1" id="Layer_1" xmlns="http://www.w3.org/2000/svg" xmlns:xlink="http://www.w3.org/1999/xlink" x="0px" y="0px"
	 viewBox="0 0 310.7 631.1" style="enable-background:new 0 0 310.7 631.1;" xml:space="preserve">
<style type="text/css">
	.st0{fill:#8C6239;stroke:#8C6239;stroke-miterlimit:10;}
	.st1{fill:#FFFFFF;stroke:#FFFFFF;stroke-miterlimit:10;}
</style>
<rect x="22.1" y="20.7" class="st0" width="260.2" height="610"/>
<path class="st1" d="M6.4,630.6c0,0,7.2-122,0-152.1s0-266.3,0-266.3S-2.8,66.5,9.6,56.8s-25.7-44.6,0-48.2s25.7-12,60.6-6
	s177.1,10.8,191.6,4.8c14.5-6,56.6-4.8,47,25.3s-30.1,273.5-16.9,288c13.3,14.5,0,200,0,203.6c0,3.6,4.8,106.3-2.4,106.3
	s-31.3,0-31.3,0s-3.6-131.6,1.2-134c4.8-2.4,8.4-168.7,1.2-175.9s-3.6-185.5,0-192.8c3.6-7.2,13.3-88,3.6-88c-9.6,0-194,4.8-200-2.4
	S24.5,2.6,32.9,105s9.6,245.8,7.2,253s-15.7,127.7-6,148.2s-4.8,124.4-4.8,124.4H6.4z"/>
</svg>
