<?xml version="1.0" encoding="utf-8"?>
<!-- Generator: Adobe Illustrator 21.0.0, SVG Export Plug-In . SVG Version: 6.00 Build 0)  -->
<svg version="1.1" id="Layer_1" xmlns="http://www.w3.org/2000/svg" xmlns:xlink="http://www.w3.org/1999/xlink" x="0px" y="0px"
	 viewBox="0 0 320.9 364.9" style="enable-background:new 0 0 320.9 364.9;" xml:space="preserve">
<style type="text/css">
	.st0{fill:#A67C52;stroke:#A67C52;stroke-miterlimit:10;}
	.st1{fill:#8C6239;stroke:#8C6239;stroke-miterlimit:10;}
	.st2{fill:#E6E6E6;stroke:#E6E6E6;stroke-miterlimit:10;}
	.st3{fill:#E6E6E6;}
	.st4{fill:url(#SVGID_1_);}
	.st5{fill:url(#SVGID_2_);}
	.st6{fill:url(#SVGID_3_);}
	.st7{fill:url(#SVGID_4_);}
	.st8{fill:url(#SVGID_5_);}
	.st9{fill:url(#SVGID_6_);}
	.st10{fill:url(#SVGID_7_);}
	.st11{fill:url(#SVGID_8_);}
	.st12{fill:#CCCCCC;stroke:#CCCCCC;stroke-miterlimit:10;}
	.st13{fill:url(#SVGID_9_);}
	.st14{fill:#B3B3B3;stroke:#B3B3B3;stroke-miterlimit:10;}
</style>
<path class="st0" d="M35.9,306.8c0,0,37.5,17.5,73.8,18.8c0,0,107.3,31.7,163.3,23.7l47.3-8.7V2l-192,22L6.8,173.3l20.6,3
	L35.9,306.8z"/>
<g id="Wall_supports">
	<path class="st1" d="M266.9,205.8c0,0-5.3,37.3-3.2,39.2s-5.8,10.6-2.3,20.3c3.5,9.8,2.1,20.4,2.3,21.3c0.2,0.9-3.7,8.2,0,14.2
		c3.7,6-5.7,8.5,0,20.2c5.7,11.8-3.8,6.5,5.2,22.2l-1.2,17.5l35,3.5l-3.5-24l-0.5-137L266.9,205.8z"/>
	<polygon class="st1" points="17.9,174.8 20.7,224.7 21.9,319.8 40.2,319.8 44.2,312.5 36.7,273.3 38.2,205.8 40.4,174.8 	"/>
</g>
<path class="st2" d="M18.1,179.7c0,0-25.7,1.7-15-25c0,0-12.3-4,17-28.3c0,0,4.3-10.3,8-7.3l26.3-32.7c0,0-5-6,3.7-11
	S88.4,42,88.4,42s6.3,2.7,35.7-25c0,0,13-14.3,25,0l-6.3,5.7l35,44c0,0,44.7,59.3,75.3,90s30.3,35,30.3,35s24,1.3,37-3.7v17
	c0,0-37.7,3.7-47.3,6.3c0,0-6.6,0.9-13-8C235.4,169,156.9,79.2,131.8,40c0,0-82.7,69-116.7,131l16.3-1
	C31.4,170,30.1,178.7,18.1,179.7z"/>
<path class="st2" d="M280.3,92.2c7.5,0.6,9-6.6,9-6.6c2.8,4.8,25.6,1.2,25.6,1.2c-2.8,3.7,5.6,9.7,5.6,9.7l0-19.8l-12.7,1.2
	c-17.7,2.8-38.4-31.5-38.4-31.5c7.8,1.2,8.8-6.8,8.8-6.8c6.2,9.7,24.1,3.1,24.1,3.1c-3.7,1,18.3,21.3,18.3,21.3V45.3l-3.3-4.7h3.3
	V15.3L313.1,9h7.3V0.6c-3.7,0.4-5.7,0.8-5.7,0.8s-12,4.7-41.7,4C243.4,4.7,218.8,8,218.8,8s-16,6-40.7,5.3c-24.7-0.7-35.3,4-35.3,4
	l-3.2,6.2l26.1,28c8.4,9,14.9,6.5,14.9,6.5l22.7-4c-2.3,2.5,1.3,5.3,1.3,5.3c22.3,19.5,21.5,29.5,21.5,29.5c-3.2,3.3-14,5.2-14,5.2
	c-6-2.7-10.5,5.2-10.5,5.2l42,49l8.3-0.3c1.7-4,19.3-7.5,19.3-7.5c21.5,22.7,25.3,38.2,25.3,38.2l-21.8,3.2l7.7,10
	c31.1,0,27.5-11,27.5-11c4.2,7.3,10.5,6,10.5,6v-9.6c-4.8,1.2-30.2-38.9-30.2-38.9c11.2,1.6,12.5-5.7,12.5-5.7
	c7.6,5.5,17.7,1.7,17.7,1.7v-8C306.7,132.3,280.3,92.2,280.3,92.2z M289.4,11.3c0,0,15.8,4.8,26.7,20.8c0,0-15.8,4.7-27.3,1.7
	c0,0-11.8-4.5-25.7-19C263.1,14.8,285.4,13.7,289.4,11.3z M236.1,14.8c0,0,7,5.4,9.5,3.8c0,0,21.7,13.1,21.3,20.1
	c0,0-20.5,5.7-27.5,0.7c0,0-14.3-6.8-25-21.8C214.4,17.5,234.9,17.5,236.1,14.8z M184.4,47.3c0,0-9.7,5.3-28.2-25.7c0,0,33-1.8,35-3
	s26.5,17.3,27.7,23.8C218.9,42.5,208.4,46.2,184.4,47.3z M219.8,52.2c0,0,9.7-1.2,10.2-7.3c0,0,11.2,8.2,23.2,3.7
	c0,0,9.8,18.3,27.5,34.8c0,0-29.8,3.8-30.5,2.7C250.3,86,236.9,78.8,219.8,52.2z M254.3,134.7c0,0-10.2,7-36.2-31
	c0,0,19.2-3.2,19.7-13.3c0,0,8.7,9.8,26,3.5c0,0,9.2,18.2,26.7,33.5L254.3,134.7z"/>
<path class="st3" d="M244.1,177.7h-21.7l9.3-18.3l-27-32.3l-6,16l-15.7-39l-7.3,9c0,0-1.8-10.3-11.1-9c0,0,12.8-25.7-13-19.7l6.2-13
	l-23-29.8l-11,14.8c0,0-8.5,3-14.5,12.5s-15.5,20-15.5,20s-13.5,11.2-17.5,15.5s-22.5,26.8-22.8,29.5c0,0-18.2,17.5-18.5,20.2
	c0,0-4.2,4.8,0,10.2c0,0-10,12.9,2.2,20.3c0,0,53.7,7.7,64,7c10.3-0.7,80.3,6.3,84,8s78.3,3.7,78.3,3.7L244.1,177.7z M48.7,163.8
	c0,0,13-27,15.8-25.5l10.8,29.8C75.2,168.1,52.4,162.1,48.7,163.8z M117.2,79.8l15.5-14l2,6.2c0,0-11.8,0.2-11,11.8l-8.8,2.5
	L117.2,79.8z M79.2,168.1l11-28.2c-1.8-0.5-4.8-25.2-4.8-25.2c0.5-3.4,23.5-25,23.5-25c-6.2,10,3.2,15.5,3.2,15.5
	c-14.2,2.8-9.2,15-9.2,15l-9.4,22l14.4,27.5L79.2,168.1z M112.2,170.3c2.2,0,7.5-19.7,7.5-19.7c4.8,5.6,7.8,2.5,7.8,2.5
	c0.2,4.1,7.2,4.9,7.2,4.9l8,15.2L112.2,170.3z M131.9,131.1c0,0,0.8-6-7.1-6c0,0,8.4-7.8,4.1-16.2c0,0,9.8-2.9,7.5-12.7
	c0,0,2.8,2.3,5.2,0c0,0,0.5,10.7,12.2,12c0,0-5.5,10.8,2.8,14.4v2.6c0,0-5.2-2-5.5,0l-7.5-16.5L131.9,131.1z M177.5,175.4l-31.6-2
	l8.8-22.7c0,0,6.5,4.8,10.5,0C165.2,150.7,180.2,175.5,177.5,175.4z M183.7,175.1l13.8-29.8l19.2,32.2L183.7,175.1z"/>
<g id="Smarties">
	<linearGradient id="SVGID_1_" gradientUnits="userSpaceOnUse" x1="125.7442" y1="77.591" x2="142.7788" y2="87.426">
		<stop  offset="0" style="stop-color:#FFFFFF"/>
		<stop  offset="0.443" style="stop-color:#66B351"/>
	</linearGradient>
	<circle class="st4" cx="134.3" cy="82.5" r="9.8"/>
	<linearGradient id="SVGID_2_" gradientUnits="userSpaceOnUse" x1="108.9293" y1="91.1147" x2="126.2604" y2="101.1208">
		<stop  offset="0" style="stop-color:#FFFFFF"/>
		<stop  offset="0.443" style="stop-color:#66B351"/>
	</linearGradient>
	<ellipse class="st5" cx="117.6" cy="96.1" rx="10.2" ry="9.5"/>
	<linearGradient id="SVGID_3_" gradientUnits="userSpaceOnUse" x1="109.6692" y1="133.0348" x2="127.1871" y2="143.1488">
		<stop  offset="0" style="stop-color:#FFFFFF"/>
		<stop  offset="0.443" style="stop-color:#66B351"/>
	</linearGradient>
	<ellipse class="st6" cx="118.4" cy="138.1" rx="10.3" ry="9.4"/>
	<linearGradient id="SVGID_4_" gradientUnits="userSpaceOnUse" x1="103.225" y1="110.4708" x2="120.9647" y2="120.7128">
		<stop  offset="0" style="stop-color:#FFFFFF"/>
		<stop  offset="0.443" style="stop-color:#66B351"/>
	</linearGradient>
	<ellipse class="st7" cx="112.1" cy="115.6" rx="10.5" ry="9.4"/>
	<linearGradient id="SVGID_5_" gradientUnits="userSpaceOnUse" x1="143.9997" y1="90.4452" x2="161.1066" y2="100.3218">
		<stop  offset="0" style="stop-color:#FFFFFF"/>
		<stop  offset="0.443" style="stop-color:#66B351"/>
	</linearGradient>
	<circle class="st8" cx="152.6" cy="95.4" r="9.9"/>
	<linearGradient id="SVGID_6_" gradientUnits="userSpaceOnUse" x1="154.4115" y1="109.6524" x2="170.9448" y2="119.1979">
		<stop  offset="0" style="stop-color:#FFFFFF"/>
		<stop  offset="0.443" style="stop-color:#66B351"/>
	</linearGradient>
	<ellipse class="st9" cx="162.7" cy="114.4" rx="9.4" ry="9.9"/>
	<linearGradient id="SVGID_7_" gradientUnits="userSpaceOnUse" x1="146.2442" y1="130.4243" x2="163.2788" y2="140.2593">
		<stop  offset="0" style="stop-color:#FFFFFF"/>
		<stop  offset="0.443" style="stop-color:#66B351"/>
	</linearGradient>
	<circle class="st10" cx="154.8" cy="135.3" r="9.8"/>
	<linearGradient id="SVGID_8_" gradientUnits="userSpaceOnUse" x1="127.3857" y1="142.4802" x2="144.804" y2="152.5367">
		<stop  offset="0" style="stop-color:#FFFFFF"/>
		<stop  offset="0.443" style="stop-color:#66B351"/>
	</linearGradient>
	<ellipse class="st11" cx="136.1" cy="147.5" rx="10.3" ry="9.2"/>
</g>
<path class="st2" d="M39.4,213.3c0,0,21,4.7,64.3,9.3s125.7,19.3,161.3,18.7c35.7-0.7,55.3-4,55.3-4V248c0,0-26.7-1.3-40.3,5
	c0,0-24-4-47-2.7c-23,1.3-68.5-9.3-68.5-9.3l-85.2-10.3l-40-5.3c0,0,1.7,21.3,0,24.7l72.7,11l82.3,9.3c0,0,48,0.7,52.3,6.3l28.3,2.3
	c0,0,39.3-1,45.3-4.7v11l-32.3,3.3l-53-2.7c0,0-65.3-3.7-65.7-7.7L91.8,268l-52.3-6.3l2,21.3l26,8c0,0,44.7,2.7,48.3,6
	c3.7,3.3,54.7,9.3,54.7,9.3s4.3,4.3,21.7,5.3s77.3,8,77.3,8s48-6.2,51-9.4V324c0,0-21,0-24,4.3c-3,4.3-52.7-1.7-52.7-1.7
	s-12.3,3.7-19.3-1.7c0,0-11-1.3-14,0.3c-3,1.7-8.7-3.7-19.7-3.3c-11,0.3-32.3-7-32.3-7l-52.7-10.3l-13-1l-50.3-8.3v13.3
	c0,0-4.3-8.3-3-13.7c0,0-9.3-5.7-2.7-12c0,0-8.3-7.7-0.3-18c0,0-4.8-12.4-0.7-14.7V240l-0.3-11.3c0,0-1.7-14.3,0.3-15.3
	s-3.7-6,1.7-9c0,0-4.3-12,1.3-12.7C38.8,191.7,42.4,204,39.4,213.3z"/>
<path id="L_Window" class="st2" d="M46.7,203.1c0,0,6.2-8.8,24.5-0.8c0,0,19.2,0,20.5,2.2c0,0,3,8,0.5,15.8s1.5,19,1.5,19
	s0.8,16.2-1.2,20.2c-2,4,5.5,20.8,1.5,32.8s1,11.5,1,11.5s2.2,6-14,2.8s-18-3.2-18-3.2s-18.8,0-16-7c0,0,4-23.5,1.8-29s-3-30-3-30
	S41.7,204.8,46.7,203.1z"/>
<path id="R_Window" class="st2" d="M184.4,218.6c0,0,13.2-6,16.2,0c0,0,46.2-9,40.8,13.5c0,0-4.2-0.2-2.2,18.2
	c0,0,1.8,19.5-0.2,23.5s1.2,39.5,1.2,39.5s1.8,21.8-12.2,12c0,0-27,2.2-34-1.5S181.7,288.3,184.4,218.6z"/>
<path class="st2" d="M102.9,218.8c0,0-4.5-17.2,10.5-12l51.2,4.5c0,0,12.6-2,5.8,15.2c0,0-3,27.5-0.8,41c2.2,13.5,2,36,0.5,38.8
	s10,37,10,37l-72.1-9.2C108.1,334.1,100.4,234.1,102.9,218.8z"/>
<path class="st12" d="M112.1,215.9c0,0,47.7,0.2,48.4,5.9s2.8,88.5,2,90.5c-0.6,1.4,6.5,26.2,6.5,26.2v6.5l-47.8-8
	C121.2,337.1,108.5,312.8,112.1,215.9z"/>
<linearGradient id="SVGID_9_" gradientUnits="userSpaceOnUse" x1="107.5499" y1="273.4659" x2="125.3064" y2="283.7177">
	<stop  offset="0" style="stop-color:#FFFFFF"/>
	<stop  offset="0.4942" style="stop-color:#66B351"/>
</linearGradient>
<circle class="st13" cx="116.4" cy="278.6" r="10.2"/>
<g id="L_Panes">
	<path class="st14" d="M53.8,245.7c0,0,7.3,2.7,9.3,2c0,0,2.6-12.6-1-30.1c-1.5-6.2,1.4-8.8,1.4-8.8l-10.5-0.6
		C52.9,208.2,56.2,239.8,53.8,245.7z"/>
	<path class="st14" d="M71.6,209.7l9,1c0,0,1.1,4.9,2.6,4.1c0,0-3.9,9.2,1.2,19.8s0,16.9,0,16.9l-11.5-2.9
		C72.9,248.6,75.2,235.8,71.6,209.7z"/>
	<path class="st14" d="M52.9,255.8l10.4,2.6l2.8,37.8c0,0-6.1,0.2-11.4-4.6C54.7,291.6,59.2,269.2,52.9,255.8z"/>
	<path class="st14" d="M72.3,259.6c0,0,8,2.8,10.8,1.5c0,0-0.4,12.6,3.7,16.6c-1.8,9-0.9,20.1-0.9,20.1H74.2L72.3,259.6z"/>
</g>
<g id="R_Panes">
	<path class="st14" d="M192.8,226c0,0,9-2.2,11.3-1c0,0,1,27.2,0,39.2c0,0-0.3,1.7-11.3,1C192.8,265.2,189.9,244.3,192.8,226z"/>
	<path class="st14" d="M214.3,225.5c0,0,13.3,1.8,14,2.5c0.7,0.7,2.7,13.5,0,17c-2.7,3.5,5,20,1.3,21.8c-3.7,1.8-15.3,0.8-15.3,0.8
		S216.5,227,214.3,225.5z"/>
	<path class="st14" d="M192.8,274.6c0,0,9.4,3.6,11.8,1.4c2.4-2.2-2.4,28.1,2.1,36.5l-8.6-1C198,311.5,191.1,298,192.8,274.6z"/>
	<path class="st14" d="M214.3,278.7c0,0,10.8,2,13.6,1s-0.7,29,2.1,35l-11.8,0.7C218.3,315.3,211,304.8,214.3,278.7z"/>
</g>
</svg>
