<?xml version="1.0" encoding="utf-8"?>
<!-- Generator: Adobe Illustrator 21.0.2, SVG Export Plug-In . SVG Version: 6.00 Build 0)  -->
<svg version="1.1" id="Layer_1" xmlns="http://www.w3.org/2000/svg" xmlns:xlink="http://www.w3.org/1999/xlink" x="0px" y="0px"
	 viewBox="0 0 86.2 168" style="enable-background:new 0 0 86.2 168;" xml:space="preserve">
<style type="text/css">
	.st0{opacity:0.61;fill:#B3B3B3;stroke:#4D4D4D;stroke-miterlimit:10;}
	.st1{opacity:0.61;fill:#4D4D4D;stroke:#4D4D4D;stroke-miterlimit:10;}
</style>
<path class="st0" d="M12.5,167.5h61.2c6.6,0,12-5.4,12-12v-143c0-6.6-5.4-12-12-12H12.5c-6.6,0-12,5.4-12,12v143
	C0.5,162.1,5.9,167.5,12.5,167.5z"/>
<path class="st1" d="M23,78.1l28.9-28.9c3.1-3.1,8.2-3.1,11.2,0c3.1,3.1,3.1,8.2,0,11.2L39.6,84l23.6,23.6c3.1,3.1,3.1,8.2,0,11.2
	c-3.1,3.1-8.2,3.1-11.2,0L23,89.9c-1.6-1.6-2.4-3.8-2.3-5.9C20.6,81.9,21.4,79.7,23,78.1z"/>
</svg>
