<?xml version="1.0" encoding="utf-8"?>
<!-- Generator: Adobe Illustrator 21.0.2, SVG Export Plug-In . SVG Version: 6.00 Build 0)  -->
<svg version="1.1" id="Layer_1" xmlns="http://www.w3.org/2000/svg" xmlns:xlink="http://www.w3.org/1999/xlink" x="0px" y="0px"
	 viewBox="0 0 793 452.4" style="enable-background:new 0 0 793 452.4;" xml:space="preserve">
<style type="text/css">
	.st0{display:none;}
	.st1{display:inline;fill:#89A1C6;stroke:#FFFFFF;stroke-width:1.0003;stroke-miterlimit:10;}
	.st2{fill:url(#SVGID_1_);stroke:#000000;stroke-width:0.6551;stroke-miterlimit:10;}
	.st3{fill:#FFFF00;}
	.st4{fill:#FFFFFF;stroke:#FFFFFF;stroke-width:1.146;stroke-miterlimit:10;}
</style>
<g id="Layer_2" class="st0">
	<rect x="0.5" class="st1" width="792.5" height="452.4"/>
</g>
<g id="Layer_1_2_">
	
		<linearGradient id="SVGID_1_" gradientUnits="userSpaceOnUse" x1="-0.1" y1="227.2" x2="793" y2="227.2" gradientTransform="matrix(1 0 0 1 0 -1)">
		<stop  offset="0" style="stop-color:#00003D"/>
		<stop  offset="1" style="stop-color:#00001C"/>
	</linearGradient>
	<rect x="-0.1" class="st2" width="793.1" height="452.4"/>
</g>
<g id="Layer_2_1_">
	<polygon class="st3" points="241.7,39.5 243.4,46 248.8,46 244.4,50 246.1,56.5 241.7,52.5 237.4,56.5 239.1,50 234.7,46 240.1,46 
			"/>
	<polygon class="st3" points="301.8,39.5 303.5,46 308.9,46 304.5,50 306.2,56.5 301.8,52.5 297.5,56.5 299.2,50 294.8,46 300.2,46 
			"/>
	<polygon class="st3" points="200.5,89.4 202.2,95.9 207.5,95.9 203.2,99.9 204.9,106.4 200.5,102.4 196.2,106.4 197.9,99.9 
		193.5,95.9 198.9,95.9 	"/>
	<polygon class="st3" points="368.6,56.5 370.3,63 375.6,63 371.3,67 373,73.5 368.6,69.5 364.3,73.5 365.9,67 361.6,63 367,63 	"/>
	<polygon class="st3" points="248.8,121.5 250.5,128 255.8,128 251.4,132 253.1,138.5 248.8,134.5 244.4,138.5 246.1,132 241.7,128 
		247.1,128 	"/>
	<polygon class="st3" points="415.6,65 417.3,71.5 422.7,71.5 418.3,75.5 420,82 415.6,78 411.3,82 413,75.5 408.6,71.5 414,71.5 	
		"/>
	<polygon class="st3" points="377.9,139.8 379.6,146.3 385,146.3 380.6,150.4 382.3,156.8 377.9,152.8 373.6,156.8 375.3,150.4 
		370.9,146.3 376.3,146.3 	"/>
	<polygon class="st3" points="474.7,107.6 476.3,114.1 481.7,114.1 477.3,118.2 479,124.7 474.7,120.6 470.3,124.7 472,118.2 
		467.6,114.1 473,114.1 	"/>
	<polygon class="st3" points="143.9,144.2 145.6,150.7 150.9,150.7 146.6,154.8 148.3,161.3 143.9,157.2 139.6,161.3 141.2,154.8 
		136.9,150.7 142.3,150.7 	"/>
	<polygon class="st3" points="534.6,174.3 536.3,180.8 541.7,180.8 537.3,184.9 539,191.4 534.6,187.4 530.3,191.4 532,184.9 
		527.6,180.8 533,180.8 	"/>
	<polygon class="st3" points="256.2,177.3 257.9,183.8 263.2,183.8 258.9,187.9 260.6,194.4 256.2,190.3 251.9,194.4 253.5,187.9 
		249.2,183.8 254.6,183.8 	"/>
	<polygon class="st3" points="323,194.4 324.7,200.9 330,200.9 325.6,204.9 327.3,211.4 323,207.4 318.6,211.4 320.3,204.9 
		316,200.9 321.4,200.9 	"/>
	<polygon class="st3" points="430.6,174.4 432.3,180.9 437.7,180.9 433.3,184.9 434.9,191.4 430.6,187.4 426.3,191.4 427.9,184.9 
		423.6,180.9 428.9,180.9 	"/>
	<polygon class="st3" points="318.6,116.1 320.2,122.6 325.6,122.6 321.3,126.7 323,133.2 318.6,129.1 314.3,133.2 316,126.7 
		311.6,122.6 316.9,122.6 	"/>
	<polygon class="st3" points="493,39.5 494.6,46 500,46 495.7,50 497.4,56.5 493,52.4 488.6,56.5 490.3,50 486,46 491.3,46 	"/>
	<polygon class="st3" points="686.9,155.2 688.5,161.7 693.9,161.7 689.5,165.7 691.2,172.2 686.9,168.2 682.5,172.2 684.2,165.7 
		679.8,161.7 685.2,161.7 	"/>
	<polygon class="st3" points="654.1,206.5 655.8,213 661.1,213 656.8,217.1 658.5,223.6 654.1,219.5 649.8,223.6 651.4,217.1 
		647.1,213 652.5,213 	"/>
	<polygon class="st3" points="560.8,60.9 562.5,67.4 567.8,67.4 563.5,71.5 565.1,78 560.8,73.9 556.5,78 558.1,71.5 553.8,67.4 
		559.2,67.4 	"/>
	<polygon class="st3" points="629.9,34.5 631.5,41 636.9,41 632.5,45.1 634.2,51.6 629.9,47.5 625.5,51.6 627.2,45.1 622.8,41 
		628.2,41 	"/>
	<polygon class="st3" points="771.1,96.9 772.7,103.4 778.1,103.4 773.7,107.5 775.4,114 771.1,109.9 766.7,114 768.4,107.5 
		764,103.4 769.4,103.4 	"/>
	<polygon class="st3" points="738.3,148.3 739.9,154.8 745.3,154.8 741,158.9 742.7,165.4 738.3,161.3 733.9,165.4 735.6,158.9 
		731.3,154.8 736.6,154.8 	"/>
	<polygon class="st3" points="556.5,116.2 558.1,122.6 563.5,122.6 559.1,126.7 560.8,133.2 556.5,129.1 552.1,133.2 553.7,126.7 
		549.4,122.6 554.8,122.6 	"/>
	<polygon class="st3" points="31.3,99.1 33,105.6 38.3,105.6 34,109.6 35.6,116.1 31.3,112.1 27,116.1 28.6,109.6 24.2,105.6 
		29.6,105.6 	"/>
	<polygon class="st3" points="150.9,50.9 152.6,57.4 158,57.4 153.7,61.5 155.3,68 150.9,63.9 146.6,68 148.3,61.5 143.9,57.4 
		149.3,57.4 	"/>
</g>
<g id="Layer_1_1_">
	<path class="st4" d="M792.5,452.4V141c0,0-51,119.5-233,68.3s-217,81.4-308,0s-251-9.2-251-9.2v252.3L792.5,452.4L792.5,452.4z"/>
</g>
</svg>
