<?xml version="1.0" encoding="utf-8"?>
<!-- Generator: Adobe Illustrator 21.0.2, SVG Export Plug-In . SVG Version: 6.00 Build 0)  -->
<svg version="1.1" id="Layer_1" xmlns="http://www.w3.org/2000/svg" xmlns:xlink="http://www.w3.org/1999/xlink" x="0px" y="0px"
	 viewBox="0 0 86.2 168" style="enable-background:new 0 0 86.2 168;" xml:space="preserve">
<style type="text/css">
	.st0{opacity:0.61;fill:#B3B3B3;stroke:#4D4D4D;stroke-miterlimit:10;}
	.st1{opacity:0.61;fill:#4D4D4D;stroke:#4D4D4D;stroke-miterlimit:10;}
</style>
<path class="st0" d="M73.7,167.5H12.5c-6.6,0-12-5.4-12-12v-143c0-6.6,5.4-12,12-12h61.2c6.6,0,12,5.4,12,12v143
	C85.7,162.1,80.3,167.5,73.7,167.5z"/>
<path class="st1" d="M63.2,78.1L34.3,49.2c-3.1-3.1-8.2-3.1-11.2,0c-3.1,3.1-3.1,8.2,0,11.2L46.6,84L23,107.6
	c-3.1,3.1-3.1,8.2,0,11.2c3.1,3.1,8.2,3.1,11.2,0l28.9-28.9c1.6-1.6,2.4-3.8,2.3-5.9C65.6,81.9,64.8,79.7,63.2,78.1z"/>
</svg>
