<?xml version="1.0" encoding="utf-8"?>
<!-- Generator: Adobe Illustrator 21.0.2, SVG Export Plug-In . SVG Version: 6.00 Build 0)  -->
<svg version="1.1" id="Layer_1" xmlns="http://www.w3.org/2000/svg" xmlns:xlink="http://www.w3.org/1999/xlink" x="0px" y="0px"
	 viewBox="0 0 231.1 228.7" style="enable-background:new 0 0 231.1 228.7;" xml:space="preserve">
<style type="text/css">
	.st0{fill:#754C24;stroke:#603813;stroke-miterlimit:10;}
	.st1{fill:#009245;stroke:#006837;stroke-miterlimit:10;}
</style>
<path class="st0" d="M90.7,153.2c0,0,2.9,58.2-8.2,68.2c-11,9.9,46.9,8.9,42.9-1.9c-4-10.8-9.1-18.8-8-66.3H90.7z"/>
<path class="st1" d="M78.3,90.4C72.7,110.9,1,177.7,1,177.7c30.7,8.7,41.3-21.5,41.3-21.5c9.3,9.2-15.3,34-15.3,34
	c18,5.2,49.3-30.5,49.3-30.5c5.3,9.3-14,29.3-14,29.3c28.7,7.3,38.7-22.7,38.7-22.7c10.7,6-0.7,22.7-0.7,22.7
	c12.7-2,20-23.3,20-23.3c-4.7,9.5,20.7,23.3,20.7,23.3c-6-10-4.7-28-4.7-28c1.9,16,49,25,49,25l-25.5-26
	c23,16.6,46.5,23.5,46.5,23.5c-14-10-30-27.3-30-27.3c46,28.2,54,20.8,54,20.8c-44.5-28.5-88.5-81-88.5-81L78.3,90.4z"/>
<path class="st1" d="M151.8,90.4c0,0,5,36.6,45.5,41.1c0,0-23,20.5-53.5-16.5c0,0-9,23.5,14,29.5c0,0-24.5,8-35-18.5
	c0,0-6.5,19.5,2,23c0,0-11,2-18-22c0,0,2.5,16.1-17.5,22c0,0,12-15,3-21c0,0-10.5,27-33,18c0,0,21.8-14.9,12.5-22
	c0,0-23,16.2-37.5,13.7c0,0,25.5-16.7,17.5-19.5c0,0-13,10.5-26.5,11.5c0,0,30-29.7,29-38.7c-0.4-3.6,24.7-44.3,50.5-43.4
	C127.8,48.3,151.8,90.4,151.8,90.4z"/>
<path class="st1" d="M62.5,61.4l36.8-30.7L135,58.9c0,0,16.5,37.5,42.5,39.5c0,0-28,8.3-42.5-6.4c0,0-7.9,12.7,7.9,15.5
	c0,0-22.4,5.5-28.4-11.8c0,0,2.5,12.2-20.5,17.2c0,0,8.5-11.6-1-20.8c0,0-12,29.3-25,20.8c0,0,14.5-18,8.5-24c0,0-8.5,21.5-26,16.5
	c0,0,17.5-12.5,8.5-18.7c0,0-14.5,16-22.5,13.5C36.5,100.2,62.5,70.4,62.5,61.4z"/>
<path class="st1" d="M102.8,1.9c0,0-27,49.3-61.5,65.4c0,0,21.5,14.6,35.5-14.4c0,0,9,16.5-3,24.5c0,0,20.8-4.5,21.8-24
	c0,0,11.8,14.5,3.3,24c0,0,18-7,12.5-23.5c0,0,10,26.5,18.5,23.5c0,0-8-16.5-4.5-20.5c0,0,7,10.3,24.5,10.4
	C149.8,67.2,103.3,18.4,102.8,1.9z"/>
</svg>
