<?xml version="1.0" encoding="utf-8"?>
<!-- Generator: Adobe Illustrator 21.0.2, SVG Export Plug-In . SVG Version: 6.00 Build 0)  -->
<svg version="1.1" id="Layer_1" xmlns="http://www.w3.org/2000/svg" xmlns:xlink="http://www.w3.org/1999/xlink" x="0px" y="0px"
	 viewBox="0 0 425.1 386.6" style="enable-background:new 0 0 425.1 386.6;" xml:space="preserve">
<style type="text/css">
	.st0{fill:#2E3192;stroke:#CCCCCC;stroke-miterlimit:10;}
	.st1{fill:#CCCCCC;stroke:#CCCCCC;stroke-miterlimit:10;}
	.st2{fill:#FFFFFF;stroke:#F2F2F2;stroke-miterlimit:10;}
</style>
<rect x="31.3" y="35" class="st0" width="366.3" height="251.8"/>
<path class="st1" d="M25.3,340l-9.6-103.8c0,0,284.3-196.4,381.9-59l-8.4,174.7l-295.2,6L25.3,340z"/>
<path class="st2" d="M404.8,35C360.2-28.8,7.2,10.9,14.4,35c0,0-31.3,248.2,0,313.3c31.3,65.1,390.4,26.5,390.4,26.5
	S449.4,98.9,404.8,35z M187.9,329.9c-10.8,12.3-94,17.8-128.9,0s-26.9-97.3-17.1-115.4c0,0,142.4-13.3,146,0
	C191.5,227.8,198.8,317.6,187.9,329.9z M186.7,166.4c-10.8,1.2-125.3,19.3-130.1,0S35,141,45.2,48.3c0,0,137.9-16.9,146.4,0
	C200,65.1,197.6,165.1,186.7,166.4z M371,49.5c19.3,8.4,9.6,119.3,9.6,119.3s-144.6,3.6-136.1-13.3c8.4-16.9-4.8-106-4.8-106
	C237.9,36.5,351.8,41,371,49.5z M373.5,329.9c0,0-136.1,16-128.9-9.3c7.2-25.3-4.8-111.9-4.8-111.9c-1.2-9.4,127.7-5,143.4,10.7
	C398.8,235,373.5,329.9,373.5,329.9z"/>
</svg>
